<svg xmlns="http://www.w3.org/2000/svg" width="11.747" height="14.838" viewBox="0 0 11.747 14.838"><path d="M9.106 12.685a4.131 4.131 0 01-3.984-3.411h4.152l.206-1.237H4.906A7.575 7.575 0 014.9 6.8h4.789l.206-1.237H5.1c.486-1.92 1.765-3.478 3.8-3.478a8.6 8.6 0 012.372.383l.475-1.954A11.435 11.435 0 008.5 0a6.588 6.588 0 00-6.55 5.564H.618L.412 6.8h1.362a8.875 8.875 0 000 1.237H.206L0 9.274h1.944A6.683 6.683 0 008.8 14.838a7.949 7.949 0 002.767-.508l-.546-2a5.639 5.639 0 01-1.914.351z" fill="#212121"/></svg>