<svg xmlns="http://www.w3.org/2000/svg" width="22" height="22" viewBox="0 0 22 22"><g transform="translate(-781 -765)"><circle cx="11" cy="11" r="11" transform="translate(781 765)" fill="#212121"/><path d="M789.348 774.502a2.928 2.928 0 014.512.448l-1.025 1.025a1.544 1.544 0 00-1.749-.889 1.519 1.519 0 00-.745.41l-1.964 1.964a1.53 1.53 0 002.162 2.164l.605-.605a3.893 3.893 0 001.724.262l-1.335 1.334a2.933 2.933 0 01-4.149-4.148l1.964-1.965zm3.118-3.119l-1.336 1.341a3.894 3.894 0 011.724.262l.6-.6a1.529 1.529 0 112.17 2.153l-1.966 1.964a1.532 1.532 0 01-2.163 0 1.627 1.627 0 01-.332-.48l-1.024 1.025a2.755 2.755 0 00.363.448 2.93 2.93 0 004.149 0l1.963-1.964a2.933 2.933 0 10-4.148-4.149z" fill="#fff"/></g></svg>