<svg xmlns="http://www.w3.org/2000/svg" width="22" height="22" viewBox="0 0 22 22"><g transform="translate(-781 -765)"><circle cx="11" cy="11" r="11" transform="translate(781 765)" fill="#212121"/><path d="M2.824,3.978a2.928,2.928,0,0,1,4.512.448L6.311,5.451a1.544,1.544,0,0,0-1.749-.889,1.519,1.519,0,0,0-.745.41L1.853,6.936A1.529,1.529,0,0,0,4.015,9.1l.605-.605a3.893,3.893,0,0,0,1.724.262L5.009,10.091A2.933,2.933,0,0,1,.86,5.943L2.824,3.978ZM5.942.859,4.606,2.2a3.894,3.894,0,0,1,1.724.262l.6-.6A1.529,1.529,0,1,1,9.1,4.015L7.134,5.979a1.532,1.532,0,0,1-2.163,0,1.627,1.627,0,0,1-.332-.48L3.615,6.524a2.755,2.755,0,0,0,.363.448,2.93,2.93,0,0,0,4.149,0L10.09,5.008A2.933,2.933,0,1,0,5.942.859Z" transform="translate(786.524 770.524)" fill="#fff"/></g></svg>