<svg xmlns="http://www.w3.org/2000/svg" width="22" height="22" viewBox="0 0 22 22"><path d="M11 0a11 11 0 1011 11A11 11 0 0011 0zm5.561 8.841A7.487 7.487 0 015.042 15.49a5.3 5.3 0 003.9-1.09 2.639 2.639 0 01-2.46-1.829 2.641 2.641 0 001.19-.045 2.637 2.637 0 01-2.115-2.615 2.627 2.627 0 001.193.329 2.637 2.637 0 01-.815-3.515 7.473 7.473 0 005.427 2.751 2.635 2.635 0 014.487-2.4 5.252 5.252 0 001.672-.639 2.644 2.644 0 01-1.158 1.457 5.252 5.252 0 001.512-.415 5.285 5.285 0 01-1.314 1.362z" fill="#212121"/></svg>