<svg xmlns="http://www.w3.org/2000/svg" width="22" height="22" viewBox="0 0 22 22"><path d="M11.028 5.658a5.3 5.3 0 00-4.353 8.3l-.534 1.951 2-.525a5.292 5.292 0 008.17-4.434 5.284 5.284 0 00-5.283-5.292zm3.109 7.557a1.636 1.636 0 01-1.073.755 2.174 2.174 0 01-1-.063 9.225 9.225 0 01-.906-.335 7.091 7.091 0 01-2.714-2.4A3.089 3.089 0 017.8 9.53a1.781 1.781 0 01.552-1.33.585.585 0 01.424-.2l.3.005c.1 0 .228-.037.358.273s.45 1.1.49 1.18a.294.294 0 01.013.279 1.1 1.1 0 01-.159.265l-.238.279c-.08.079-.162.165-.07.325a4.788 4.788 0 00.884 1.1 4.312 4.312 0 001.278.788c.159.079.251.066.345-.039s.4-.464.5-.623.212-.133.358-.08.927.437 1.085.517.265.119.3.185a1.3 1.3 0 01-.092.755zM11 0a11 11 0 1011 11A11 11 0 0011 0zm.027 17.307a6.366 6.366 0 01-3.041-.774l-3.371.884.9-3.3a6.359 6.359 0 115.51 3.185z" fill="#212121"/></svg>