<svg xmlns="http://www.w3.org/2000/svg" width="22" height="22" viewBox="0 0 22 22"><path d="M11.028,5.658a5.3,5.3,0,0,0-4.353,8.3l-.534,1.951,2-.525a5.292,5.292,0,0,0,8.17-4.434A5.284,5.284,0,0,0,11.028,5.658Zm3.109,7.557a1.636,1.636,0,0,1-1.073.755,2.174,2.174,0,0,1-1-.063,9.225,9.225,0,0,1-.906-.335,7.091,7.091,0,0,1-2.714-2.4A3.089,3.089,0,0,1,7.8,9.53,1.781,1.781,0,0,1,8.352,8.2a.585.585,0,0,1,.424-.2l.3.005c.1,0,.228-.037.358.273s.45,1.1.49,1.18a.294.294,0,0,1,.013.279,1.1,1.1,0,0,1-.159.265l-.238.279c-.08.079-.162.165-.07.325a4.788,4.788,0,0,0,.884,1.1,4.312,4.312,0,0,0,1.278.788c.159.079.251.066.345-.039s.4-.464.5-.623.212-.133.358-.08.927.437,1.085.517.265.119.3.185a1.3,1.3,0,0,1-.092.755ZM11,0A11,11,0,1,0,22,11,11,11,0,0,0,11,0Zm.027,17.307a6.366,6.366,0,0,1-3.041-.774l-3.371.884.9-3.3a6.359,6.359,0,1,1,5.51,3.185Z" fill="#212121"/></svg>