<svg xmlns="http://www.w3.org/2000/svg" width="37.369" height="37.369" viewBox="0 0 37.369 37.369"><path d="M17 21.694h1.1V27.6H17v-.652a2.468 2.468 0 01-.631.55c-.593.339-1.4.332-1.4-.867v-4.937h1.1v4.529c0 .238.058.4.293.4.215 0 .512-.274.646-.442v-4.487zm1-6.51c.311 0 .484-.249.484-.587V11.71c0-.347-.153-.592-.5-.592-.324 0-.481.251-.481.592v2.89a.52.52 0 00.5.587zm-3.022 4.408h-3.8v1.163h1.281V27.6H13.7v-6.845h1.278zm7.35 3.508v3.278c0 .732-.274 1.3-1 1.3a1.256 1.256 0 01-1.045-.529v.451H19.17v-8.009h1.109v2.578a1.319 1.319 0 01.978-.551c.8 0 1.071.68 1.071 1.482zm-1.132.067a.74.74 0 00-.117-.455.452.452 0 00-.571-.1l-.227.181v3.682l.26.209a.469.469 0 00.562-.061.693.693 0 00.095-.408v-3.048zm16.173-4.483A18.684 18.684 0 1118.684 0a18.685 18.685 0 0118.685 18.684zm-16.732-3.5c0 .613.187 1.109.808 1.109a1.822 1.822 0 001.331-.775v.682h1.154V9.991h-1.154V14.7c-.14.176-.453.466-.679.466-.248 0-.307-.168-.307-.419V9.991h-1.153v5.188zm-4.327-3.576v3.042A1.491 1.491 0 0018 16.313a1.58 1.58 0 001.658-1.663v-3.042A1.621 1.621 0 0018 9.94a1.588 1.588 0 00-1.689 1.668zm-4.3-3.823l1.546 5V16.2h1.3v-3.415l1.512-5h-1.32l-.833 3.363-.9-3.363h-1.304zm15.756 15.894c-.02-4.056-.318-5.608-2.877-5.783-2.364-.162-10.051-.16-12.411 0-2.557.174-2.857 1.719-2.877 5.783.02 4.058.318 5.608 2.877 5.784 2.36.16 10.047.16 12.411 0 2.558-.176 2.857-1.719 2.877-5.784zm-1.378-.4v1.5h-2.1V25.9c0 .444.037.827.48.827.464 0 .49-.311.49-.827v-.41h1.132v.444c0 1.138-.487 1.828-1.646 1.828-1.053 0-1.587-.764-1.587-1.828v-2.653a1.624 1.624 0 011.668-1.738c1.056 0 1.565.671 1.565 1.739zm-1.13-.011c0-.4-.084-.693-.481-.693s-.489.286-.489.693v.6h.97z" fill="#fff"/></svg>