<svg xmlns="http://www.w3.org/2000/svg" width="11.747" height="14.838" viewBox="0 0 11.747 14.838"><path d="M12.106,12.685A4.131,4.131,0,0,1,8.122,9.274h4.152l.206-1.237H7.906A7.575,7.575,0,0,1,7.9,6.8h4.789l.206-1.237H8.1c.486-1.92,1.765-3.478,3.8-3.478a8.6,8.6,0,0,1,2.372.383L14.747.514A11.435,11.435,0,0,0,11.5,0a6.588,6.588,0,0,0-6.55,5.564H3.618L3.412,6.8H4.774a8.875,8.875,0,0,0,0,1.237H3.206L3,9.274H4.944A6.683,6.683,0,0,0,11.8,14.838a7.949,7.949,0,0,0,2.767-.508l-.546-2a5.639,5.639,0,0,1-1.914.351Z" transform="translate(-3)" fill="#212121"/></svg>