<svg xmlns="http://www.w3.org/2000/svg" width="27.232" height="32.128" viewBox="0 0 27.232 32.128"><path d="M23.687,23.94a.546.546,0,0,0,.041-.065.57.57,0,0,0,.031-.153c0-.017.009-.032.01-.049s0-.01,0-.016V.577A.577.577,0,0,0,23.195,0H5.308A2.311,2.311,0,0,0,3,2.308v23.08A2.311,2.311,0,0,0,5.308,27.7H23.195a.577.577,0,0,0,.48-.9,2.537,2.537,0,0,1,0-2.822C23.682,23.966,23.68,23.951,23.687,23.94ZM9.347,8.655a.577.577,0,0,1,.577-.577h1.731V6.347a.577.577,0,0,1,.577-.577H14.54a.577.577,0,0,1,.577.577V8.078h1.731a.577.577,0,0,1,.577.577v2.308a.577.577,0,0,1-.577.577H15.117v6.347a.577.577,0,0,1-.577.577H12.232a.577.577,0,0,1-.577-.577V11.54H9.924a.577.577,0,0,1-.577-.577Zm12.93,17.887H5.308a1.154,1.154,0,1,1,0-2.308H22.277A3.674,3.674,0,0,0,22.277,26.542Z" transform="matrix(0.966, -0.259, 0.259, 0.966, -2.898, 6.153)" fill="#121928"/></svg>