<svg xmlns="http://www.w3.org/2000/svg" width="37.369" height="37.369" viewBox="0 0 37.369 37.369"><path d="M17,21.694h1.1V27.6H17v-.652a2.468,2.468,0,0,1-.631.55c-.593.339-1.4.332-1.4-.867V21.694h1.1v4.529c0,.238.058.4.293.4.215,0,.512-.274.646-.442V21.694Zm1-6.51c.311,0,.484-.249.484-.587V11.71c0-.347-.153-.592-.5-.592-.324,0-.481.251-.481.592V14.6a.52.52,0,0,0,.5.587Zm-3.022,4.408h-3.8v1.163h1.281V27.6H13.7V20.755h1.278ZM22.328,23.1v3.278c0,.732-.274,1.3-1,1.3a1.256,1.256,0,0,1-1.045-.529V27.6H19.17V19.591h1.109v2.578a1.319,1.319,0,0,1,.978-.551c.8,0,1.071.68,1.071,1.482Zm-1.132.067a.74.74,0,0,0-.117-.455.452.452,0,0,0-.571-.1l-.227.181v3.682l.26.209a.469.469,0,0,0,.562-.061.693.693,0,0,0,.095-.408V23.167Zm16.173-4.483A18.684,18.684,0,1,1,18.684,0,18.685,18.685,0,0,1,37.369,18.684Zm-16.732-3.5c0,.613.187,1.109.808,1.109a1.822,1.822,0,0,0,1.331-.775V16.2H23.93V9.991H22.776V14.7c-.14.176-.453.466-.679.466-.248,0-.307-.168-.307-.419V9.991H20.637v5.188ZM16.31,11.608V14.65A1.491,1.491,0,0,0,18,16.313a1.58,1.58,0,0,0,1.658-1.663V11.608A1.621,1.621,0,0,0,18,9.94a1.588,1.588,0,0,0-1.689,1.668Zm-4.3-3.823,1.546,5V16.2h1.3V12.785l1.512-5h-1.32l-.833,3.363-.9-3.363H12.011ZM27.766,23.679c-.02-4.056-.318-5.608-2.877-5.783-2.364-.162-10.051-.16-12.411,0-2.557.174-2.857,1.719-2.877,5.783.02,4.058.318,5.608,2.877,5.784,2.36.16,10.047.16,12.411,0,2.558-.176,2.857-1.719,2.877-5.784Zm-1.378-.4v1.5h-2.1V25.9c0,.444.037.827.48.827.464,0,.49-.311.49-.827V25.49h1.132v.444c0,1.138-.487,1.828-1.646,1.828-1.053,0-1.587-.764-1.587-1.828V23.281a1.624,1.624,0,0,1,1.668-1.738c1.056,0,1.565.671,1.565,1.739Zm-1.13-.011c0-.4-.084-.693-.481-.693s-.489.286-.489.693v.6h.97Z" fill="#fff"/></svg>